<?xml version="1.0" encoding="iso-8859-1"?>
<!-- Generator: Adobe Illustrator 28.7.1, SVG Export Plug-In . SVG Version: 9.03 Build 54978)  -->
<svg version="1.0" xmlns="http://www.w3.org/2000/svg" xmlns:xlink="http://www.w3.org/1999/xlink" x="0px" y="0px"
	 viewBox="0 0 526.914 198.194" style="enable-background:new 0 0 526.914 198.194;" xml:space="preserve">
<g id="Fixed">
	<rect id="Background_Rect" style="stroke:#000000;stroke-width:0.25;stroke-miterlimit:10;" width="526.914" height="198.194"/>
	<g id="_x35_R_logo">
		<path style="fill-rule:evenodd;clip-rule:evenodd;fill:#B78C2D;" d="M76.601,52.844c0.025-0.102-0.05-0.854-0.147-0.439
			C76.324,52.962,76.533,53.138,76.601,52.844L76.601,52.844z M78.821,46.98c-0.444,0.926-1.2,1.547-1.479,2.639
			c1.624-2.643,3.35-5.183,6.805-6.01l-0.074,0.268l0.221,0.172c-1.547,0.991-2.594,1.249-3.699,2.345
			c-1.849,1.832-3.877,5.992-2.366,9.235c2.036,4.37,7.835,6.636,12.279,4.251c0.907-0.486,2.526-1.927,2.072-3.957
			c-0.071-0.311-1.816-2.259-2.218-2.347c-0.266-0.058-0.16,0.297-0.593,0.441c-0.548,0.182-1.447-0.003-2.219,0.44
			c-0.674-0.017-0.249-1.122-1.333-0.734c-0.556,0.407,0.585,0.853,0.15,1.173c-0.669,0.365-1.361,0.704-2.073,1.027
			c-0.198-0.536-0.877-0.595-1.182-1.027c-0.504-2.461,1.588-4.621,3.846-4.692c0.376-0.011,0.802,0.373,1.331,0.44
			c0.819,0.105,1.766-0.225,2.516,0c1.025,0.31,2.956,1.972,3.4,2.932c0.579,1.248,0.504,3.021,0.15,4.252
			c-0.325,1.124-1.635,2.606-2.81,3.373c-2.582,1.68-6.163,2.225-9.469,1.465c-0.555-0.129-0.957-0.702-1.628-0.441
			c-0.453-1.345-2.095-2.169-3.106-3.517c-0.346-0.46-0.647-1.294-1.036-1.906c-0.724-1.139-1.282-1.916-1.035-3.958
			c0.297-2.453,1.835-4.922,3.401-6.304l0.074,0.22L78.821,46.98L78.821,46.98z"/>
		<path style="fill-rule:evenodd;clip-rule:evenodd;fill:#B78C2D;" d="M94.355,117.2c-1.097-0.529-2.101-1.144-2.959-1.906
			l0.074-0.22l-0.222-0.072c-1.61-0.881-1.659-3.229-1.923-5.719c-0.106-0.987-0.101-0.012-0.149,0.292
			c-0.289,1.838,0.4,4.336,2.072,5.57l-0.075,0.223l0.223,0.072c7.738,5.721,19.004,7.948,29.293,11.141
			c-0.034,0.212,12.026,2.767,12.023,3.006l-0.194,0.243l-0.243,0.144c-7.5-1.631-30.499-7.188-36.545-10.312
			c-4.83-2.494-8.952-4.258-8.18-11.991c0.478-4.808,4.261-8.079,7.248-11.728c1.374-1.676,2.727-3.363,4.143-5.424
			c2.019-2.94,4.852-6.754,1.775-10.115c-2.513-2.744-6.196-3.31-11.096-4.252c-2.168-0.415-4.53-0.606-6.953-0.733
			c-4.315-0.223-8.276-0.144-11.835,0.44c-2.081,0.342-5.315,1.057-7.989,1.028c-0.593-0.002-0.49,0.685-0.889,0.878
			c-0.541,0-1.085,0-1.626,0c-3.776,1.439-8.67,1.769-12.576,3.079c-0.181-0.449-0.396-0.005-0.444-0.587
			c-0.657,0.007-1.066,0.594-0.74-0.294c-0.868-0.06-2.324,1.293-3.401,1.026c-0.348-0.931,0.315-1.912,0-2.931
			c2.12-2.687,5.501-4.125,9.912-4.543c0.755-0.188,0.156,0.426,0.444,0.438c0.299-0.003,0.29-0.151,0.739-0.145
			c0.287,0.003,0.783,0.283,0.591,0.291c0.749-0.031,1.633-0.563,2.516-0.732c3.649-0.697,8.878-0.495,14.35-0.733
			c3.385-0.147,7.202-0.269,10.357,0.147c1.553,0.206,3.145,0.658,4.734,0.881c5.089,0.708,11.86,0.966,14.942,3.517
			c1.084,0.897,2.534,2.727,2.958,3.665c0.576,1.271,0.713,3.245,0.444,4.691c-0.213,1.147-0.569,2.758-1.036,3.811
			c-0.488,1.099-1.646,1.202-1.627,3.225c-0.718,0.905-2.317,1.655-3.402,2.638c-0.553,0.501-1.068,1.429-1.775,2.199
			c-0.6,0.654-1.331,1.215-1.925,1.907c-0.56,0.654-1.04,1.453-1.626,2.199c-1.351,1.713-2.505,2.752-2.958,5.57
			c-0.227,1.406-0.369,3.193-0.15,4.253c0.557,2.666,3.112,3.923,5.031,5.569l-0.073,0.22l0.073,0.22
			c-0.43,0.072-0.852-0.607-1.037-0.294l-0.22-0.073L94.355,117.2L94.355,117.2z"/>
		<path style="fill-rule:evenodd;clip-rule:evenodd;fill:#B78C2D;" d="M81.78,136.845c0.167-1.057,0.495-1.953,0.592-3.079
			c-1.752,6.422-3.897,12.893-6.787,17.659l-1.998,3.35l-0.185-0.306c2.654-7.454,8.162-16.463,7.49-25.248
			c-0.313-4.093-2.286-6.235-4.291-8.795c-0.551-0.706-1.4-1.452-1.923-2.346c-1.122-1.922-1.9-4.654-2.515-7.185
			c-0.653-2.68-1.044-5.683-1.182-8.355c-0.116-2.202,0.124-4.583-0.446-6.744c-0.095-0.367-0.497-0.534-0.59-1.172
			c-0.171-1.172,0.167-2.568,0.443-3.373c0.392-1.134,1.521-1.863,1.775-3.078c1.374-0.094,2.515-1.138,4.143-1.319
			c1.501-0.167,3.006,0.074,4.586,0.293c0.123,0.801,1.067,0.915,0.888,1.614c0.778,0.085,1.27-0.11,1.922-0.147
			c0.78,3.569-1.941,4.906-5.621,4.544c-0.695,0.102-0.546-0.632-1.037-0.732c-1.133-0.149-1.993,0.124-3.253,0.292
			c-0.076,2.398-0.5,4.722-0.443,7.037c0.015,0.675,0.274,1.389,0.295,2.052c0.097,3.028-0.162,5.443,0.887,7.768
			c0.281,0.62,0.765,1.15,1.036,1.762c0.719,1.613,0.897,3.336,1.922,4.69c0.213,0.279,0.428,0.268,0.741,0.587
			c0.23,0.231,0.276,0.717,0.443,0.878c0.283,0.274,0.717,0.268,0.889,0.588c0.471,1.559,1.135,2.769,1.923,4.251
			c0.37,0.695,1.04,1.342,1.331,2.051c0.279,0.676,0.469,1.858,0.739,2.931c0.961,3.801,0.459,8.075-1.182,11.144l-0.173-0.223
			l-0.271,0.074c-0.196-0.548,0.441-1.013,0-1.319l0.075-0.22L81.78,136.845L81.78,136.845z"/>
		<path style="fill-rule:evenodd;clip-rule:evenodd;fill:#B78C2D;" d="M80.522,142.633l0.37,0.073
			c-0.214,0.669-0.508,1.256-0.888,1.76l-0.221-0.074l-0.222,0.074c0.011-0.918,0.46-1.402,0.592-2.2l0.147,0.072l0.148-0.072
			c0.05,0,0.099,0,0.147,0L80.522,142.633L80.522,142.633z"/>
		<path style="fill-rule:evenodd;clip-rule:evenodd;fill:#B78C2D;" d="M84.073,43.877c2.455-0.896,5.137-1.179,7.692-0.635"/>
		<path style="fill-rule:evenodd;clip-rule:evenodd;fill:#B78C2D;" d="M78.746,46.76c0.423-0.65,1.194-1.01,1.628-1.613"/>
		<path style="fill-rule:evenodd;clip-rule:evenodd;fill:#B78C2D;" d="M94.429,116.979c3.23,1.452,6.713,3.997,10.177,4.271
			c0.021,0.002,0.05-0.04,0.074-0.042"/>
		<path style="fill-rule:evenodd;clip-rule:evenodd;fill:#B78C2D;" d="M104.68,121.208c-2.885-1.529-6.117-2.55-9.067-4.082"/>
		<path style="fill-rule:evenodd;clip-rule:evenodd;fill:#B78C2D;" d="M91.173,115.368c0.1-0.1,0.199-0.196,0.297-0.294"/>
		<path style="fill-rule:evenodd;clip-rule:evenodd;fill:#B78C2D;" d="M80.3,142.338c0.579-1.852,1.086-3.754,1.703-5.569"/>
		<path style="fill-rule:evenodd;clip-rule:evenodd;fill:#B78C2D;" d="M80.522,142.633c0.832-1.341,1.154-2.919,1.677-4.399"/>
	</g>
</g>
<g id="Versions">
	<g id="English">
		<g id="ENGLISH_00000157283853614792867020000015515803453433805230_">
			<g id="Text_00000166657668215686373610000002083814702145391277_">
				<g id="Outlined_Text">
					<path style="fill:#B78C2D;" d="M150.754,76.765v2.984h-15.196v13.597c1.169-0.185,2.317-0.276,3.445-0.276
						c4.286,0,7.731,1.204,10.336,3.614c2.604,2.41,3.907,5.645,3.907,9.705c0,3.979-1.323,7.29-3.968,9.937
						c-2.646,2.645-5.958,3.968-9.936,3.968c-3.322,0-6.768-0.943-10.336-2.83v-3.661c3.999,2.318,7.485,3.477,10.459,3.477
						c3.076,0,5.609-1.005,7.598-3.015c1.989-2.01,2.984-4.553,2.984-7.629c0-3.363-1.057-5.993-3.168-7.891
						c-2.112-1.896-4.922-2.845-8.429-2.845c-1.907,0-3.876,0.307-5.906,0.922V76.765H150.754z"/>
					<path style="fill:#B78C2D;" d="M167.756,76.765h11.013c4.614,0,8.141,1,10.582,3c2.44,1.999,3.661,4.701,3.661,8.105
						c0,4.963-2.728,8.449-8.183,10.458c1.415,0.677,3.322,2.861,5.722,6.553l9.721,14.857h-3.933l-7.486-11.778
						c-2.501-3.938-4.449-6.396-5.843-7.37c-1.395-0.975-3.434-1.462-6.12-1.462h-5.812v20.61h-3.322V76.765z M171.079,79.534V96.36
						h7.137c3.63,0,6.403-0.733,8.321-2.199c1.917-1.466,2.876-3.543,2.876-6.229c0-2.646-0.974-4.706-2.922-6.183
						c-1.949-1.477-4.748-2.215-8.398-2.215H171.079z"/>
					<path style="fill:#B78C2D;" d="M246.335,76.765v42.974h-3.353V99.374h-28.67v20.364h-3.322V76.765h3.322v19.841h28.67V76.765
						H246.335z"/>
					<path style="fill:#B78C2D;" d="M294.095,76.765l-16.703,19.903v23.071h-3.322V96.667l-16.704-19.903h4.015l14.369,17.025
						l14.289-17.025H294.095z"/>
					<path style="fill:#B78C2D;" d="M335.981,76.765v2.77h-16.119v40.205h-3.354V79.534h-16.119v-2.77H335.981z"/>
					<path style="fill:#B78C2D;" d="M381.122,76.765v42.974h-3.353V99.374h-28.67v20.364h-3.322V76.765h3.322v19.841h28.67V76.765
						H381.122z"/>
					<path style="fill:#B78C2D;" d="M417.771,96.723l16.325-19.958h3.362v42.974h-3.354V81.626l-16.35,20.086l-16.411-20.086v38.113
						h-3.322V76.765h3.323L417.771,96.723z"/>
					<path style="fill:#B78C2D;" d="M473.591,78.919v3.66c-3.732-2.194-6.941-3.291-9.628-3.291c-2.584,0-4.742,0.784-6.476,2.353
						c-1.733,1.569-2.6,3.513-2.6,5.829c0,1.662,0.513,3.159,1.539,4.492c1.024,1.333,3.168,2.614,6.429,3.844
						s5.64,2.256,7.137,3.076s2.769,2.01,3.814,3.568s1.569,3.579,1.569,6.06c0,3.303-1.211,6.092-3.631,8.367
						c-2.42,2.277-5.373,3.415-8.859,3.415c-3.568,0-7.239-1.251-11.012-3.753v-3.906c4.162,3.056,7.771,4.583,10.828,4.583
						c2.542,0,4.69-0.825,6.444-2.477c1.753-1.65,2.63-3.676,2.63-6.076c0-1.825-0.544-3.472-1.631-4.938
						c-1.086-1.467-3.29-2.838-6.611-4.112c-3.32-1.275-5.693-2.302-7.12-3.081c-1.427-0.778-2.637-1.891-3.632-3.335
						c-0.996-1.444-1.493-3.305-1.493-5.58c0-3.156,1.21-5.846,3.63-8.07c2.42-2.224,5.332-3.335,8.736-3.335
						C466.999,76.212,470.31,77.114,473.591,78.919z"/>
				</g>
				<g id="Outlined_Text_00000085216481944894905430000000344565631753154481_">
					<path style="fill:#B78C2D;" d="M477.617,80.352c0-0.923,0.328-1.713,0.986-2.371c0.657-0.658,1.447-0.987,2.371-0.987
						c0.922,0,1.713,0.329,2.37,0.987c0.658,0.658,0.987,1.448,0.987,2.371s-0.329,1.713-0.987,2.371
						c-0.657,0.658-1.448,0.987-2.37,0.987c-0.924,0-1.714-0.329-2.371-0.987C477.945,82.065,477.617,81.275,477.617,80.352z
						 M483.91,80.352c0-0.806-0.288-1.497-0.864-2.072c-0.575-0.576-1.267-0.864-2.071-0.864c-0.807,0-1.496,0.288-2.07,0.864
						c-0.574,0.575-0.861,1.266-0.861,2.072s0.287,1.497,0.861,2.072c0.574,0.576,1.264,0.864,2.07,0.864
						c0.805,0,1.496-0.288,2.071-0.864C483.622,81.849,483.91,81.158,483.91,80.352z M479.625,78.625h1.459
						c0.372,0,0.664,0.083,0.877,0.248c0.212,0.166,0.318,0.395,0.318,0.688c0,0.542-0.32,0.869-0.963,0.98
						c0.252,0.152,0.435,0.308,0.548,0.466c0.112,0.158,0.296,0.541,0.552,1.147h-0.532c-0.313-0.688-0.562-1.119-0.743-1.292
						s-0.475-0.259-0.879-0.259h-0.206v1.551h-0.431V78.625z M480.055,80.251h0.585c0.406,0,0.696-0.048,0.867-0.145
						c0.172-0.097,0.258-0.267,0.258-0.51c0-0.237-0.079-0.4-0.235-0.488c-0.157-0.088-0.432-0.132-0.824-0.132h-0.65V80.251z"/>
				</g>
			</g>
		</g>
	</g>
</g>
</svg>
